<svg width="14" height="14" viewBox="0 0 14 14" fill="none" xmlns="http://www.w3.org/2000/svg">
<path d="M11.8021 5.18894L7.36939 9.84793C7.31662 9.90323 7.25945 9.9423 7.19789 9.96516C7.13632 9.98839 7.07036 10 7 10C6.92964 10 6.86368 9.98839 6.80211 9.96516C6.74055 9.9423 6.68338 9.90323 6.63061 9.84793L2.1847 5.18894C2.06157 5.05991 2 4.89862 2 4.70507C2 4.51152 2.06596 4.34562 2.19789 4.20737C2.32982 4.06912 2.48373 4 2.65963 4C2.83553 4 2.98945 4.06912 3.12137 4.20737L7 8.27189L10.8786 4.20737C11.0018 4.07834 11.1534 4.01382 11.3335 4.01382C11.514 4.01382 11.6702 4.08295 11.8021 4.2212C11.934 4.35945 12 4.52074 12 4.70507C12 4.8894 11.934 5.05069 11.8021 5.18894Z" fill="#AA8FEB"/>
</svg>
