<svg width="25" height="27" viewBox="0 0 25 27" fill="none" xmlns="http://www.w3.org/2000/svg">
<path d="M2.33993 3.23144C2.33993 1.99905 3.33977 1 4.57313 1H20.6522C21.8856 1 22.8854 1.99905 22.8854 3.23144V10.4582C23.5542 10.8613 23.7943 11.2968 23.9231 12.4928L23.9999 21.083C23.9382 22.8055 24.002 23.5376 23.9999 23.7607C23.9861 25.2308 23.1552 25.6496 23.028 25.7362C22.5378 26.0699 21.8856 25.9921 20.6522 25.9921H4.57313C3.33977 25.9921 1.22332 26.2153 1 23.7607V17.959V12.1572C1.16006 11.1481 1.46133 10.7811 2.33993 10.4283V3.23144Z" fill="#1E0063"/>
<path d="M20.6522 12.1572C20.6522 11.1713 21.4521 10.3721 22.4388 10.3721C23.4255 10.3721 23.9231 11.5069 23.9231 12.4928L23.9999 21.083V23.7607C24.002 25.0996 23.2255 25.9921 21.9922 25.9921H20.6522V12.1572Z" fill="#1E0063"/>
<path d="M4.57313 12.1572C4.57313 11.1713 3.77326 10.3721 2.78657 10.3721C1.79987 10.3721 1 11.1713 1 12.1572V23.7607C1 24.9931 1.99984 25.9921 3.23321 25.9921H4.57313L4.57313 12.1572Z" fill="#1E0063"/>
<path d="M4.57313 25.9921H20.6522M4.57313 25.9921C3.33977 25.9921 1.22332 26.2153 1 23.7607M4.57313 25.9921H3.23321C1.99984 25.9921 1 24.9931 1 23.7607M4.57313 25.9921L4.57313 12.1572C4.57313 11.1713 3.77326 10.3721 2.78657 10.3721C1.79987 10.3721 1 11.1713 1 12.1572M1 23.7607V12.1572M1 23.7607V17.9589V12.1572M20.6522 25.9921C21.8856 25.9921 22.5378 26.0699 23.028 25.7362C23.1552 25.6496 23.9861 25.2308 23.9999 23.7607M20.6522 25.9921H21.9922C23.2255 25.9921 24.002 25.0996 23.9999 23.7607M20.6522 25.9921V12.1572C20.6522 11.1713 21.4521 10.3721 22.4388 10.3721C23.4255 10.3721 23.9231 11.5069 23.9231 12.4928M23.9999 23.7607C24.002 23.5376 23.9382 22.8056 23.9999 21.083M23.9999 23.7607V21.083M23.9231 12.4928L23.9999 21.083M23.9231 12.4928C23.7943 11.2968 23.5542 10.8613 22.8854 10.4582V3.23144C22.8854 1.99905 21.8856 1 20.6522 1H4.57313C3.33977 1 2.33993 1.99905 2.33993 3.23144V10.4283C1.46133 10.7811 1.16006 11.1481 1 12.1572M4.57313 21.6035C10.7853 19.7295 14.308 19.7092 20.6522 21.6035" stroke="#3D1892"/>
</svg>
